# xmcd
#
# Track frame offsets:
#	150
#	9975
#	22170
#	38237
#	49720
#	62217
#	72237
#	82145
#	91917
#	103615
#	112182
#	123610
#	136105
#	149712
#	160085
#	172115
#	184952
#	196025
#
# Disc length: 2761
#
# Revision: 1
# Processed by: cddbd v1.5.1PL0 Copyright (c) Steve Scherf et al.
# Submitted via: ExactAudioCopy v0.90a11
# Normalized: r0:DSETVAR1
#
DISCID=070ac712
DTITLE=Various Artist - The Cream of Rare Soul: Six by Six
DYEAR=1900
DGENRE=
TTITLE0=Willie Hatcher - This and That
TTITLE1=Jimmy Gilford - Misery Street
TTITLE2=J. J. Barnes - Reason for Livin'
TTITLE3=The Holidays - Watch Out
TTITLE4=Forest Hairston - We go to Pieces (Instrumental)
TTITLE5=Dynamics - Love to a Guy
TTITLE6=Diane Lewis - Keep a Hold on Me
TTITLE7=Lloyd Williams and Highlights - Kangaroo Bounce
TTITLE8=Swingers - Opposites Attract
TTITLE9=Bob and Fred - I'll be on My Way
TTITLE10=The Floor Shakers - Six by Six
TTITLE11=Sherlie Mathews - My Sugar Baby
TTITLE12=The Soul Fox Orchestra - Thumb a Ride
TTITLE13=Echoes and The Soul Masters - Lookin' for You
TTITLE14=The Soul Masters - Hold on
TTITLE15=Bob and Earl - Baby, Your Time is My Time
TTITLE16=Bob and Earl - I Can't Get Away
TTITLE17=The Olympics - Mine Exclusively
EXTD=
EXTT0=
EXTT1=
EXTT2=
EXTT3=
EXTT4=
EXTT5=
EXTT6=
EXTT7=
EXTT8=
EXTT9=
EXTT10=
EXTT11=
EXTT12=
EXTT13=
EXTT14=
EXTT15=
EXTT16=
EXTT17=
PLAYORDER=
